<?xml version="1.0" encoding="UTF-8"?><svg width="740" height="280" enable-background="new 0 0 590 113" version="1.1" viewBox="0 0 740.00056 280" xmlns="http://www.w3.org/2000/svg" xmlns:cc="http://creativecommons.org/ns#" xmlns:dc="http://purl.org/dc/elements/1.1/" xmlns:rdf="http://www.w3.org/1999/02/22-rdf-syntax-ns#"><metadata><rdf:RDF><cc:Work rdf:about=""><dc:format>image/svg+xml</dc:format><dc:type rdf:resource="http://purl.org/dc/dcmitype/StillImage"/><dc:title/></cc:Work></rdf:RDF></metadata><g transform="translate(87.32 50.439)"><path d="m37.06 80.036v-11.2h-21.36c-1.94 0-3.66 0.24-5.18 0.73-1.53 0.5-2.87 1.14-4.03 1.94-1.18 0.8-2.17 1.74-3 2.8-0.8 1.07-1.47 2.18-2 3.34-0.49 1.19-0.89 2.35-1.11 3.53-0.26 1.16-0.38 2.29-0.38 3.36v15.16c0 2.9 0.53 5.36 1.57 7.35 1.05 2 2.36 3.63 3.93 4.88 1.56 1.25 3.26 2.15 5.1 2.7 1.84 0.54 3.54 0.82 5.1 0.82h30.38v-11.21h-30.3c-1.5 0-2.63-0.4-3.4-1.18-0.78-0.77-1.17-1.9-1.17-3.36v-15.08c0-1.56 0.4-2.7 1.15-3.45 0.76-0.75 1.87-1.12 3.34-1.12z" fill="#ff6635"/><path d="m105.7 99.696c0 1.93-0.25 3.66-0.74 5.2-0.5 1.53-1.14 2.88-1.94 4.05s-1.74 2.16-2.8 2.98c-1.07 0.82-2.18 1.5-3.34 2-1.17 0.52-2.34 0.9-3.54 1.15-1.2 0.24-2.32 0.36-3.38 0.36h-20.22c-1.55 0-3.25-0.28-5.08-0.82-1.84-0.55-3.55-1.45-5.1-2.7-1.58-1.25-2.9-2.87-3.93-4.87-1.05-1.98-1.58-4.43-1.58-7.34v-15.17c0-2.9 0.53-5.32 1.58-7.32s2.35-3.62 3.92-4.87c1.56-1.24 3.27-2.14 5.1-2.68 1.85-0.55 3.54-0.82 5.1-0.82h20.2c2.88 0 5.32 0.52 7.34 1.55 2 1.03 3.62 2.33 4.86 3.9 1.23 1.57 2.13 3.27 2.7 5.1 0.55 1.85 0.83 3.56 0.83 5.14v15.16zm-11.22-15.1c0-1.54-0.38-2.7-1.16-3.43-0.78-0.75-1.9-1.13-3.36-1.13h-20.13c-1.5 0-2.63 0.4-3.4 1.15-0.78 0.76-1.17 1.87-1.17 3.34v15.16c0 1.47 0.4 2.6 1.16 3.36 0.78 0.78 1.9 1.17 3.4 1.17h20.14c1.52 0 2.66-0.4 3.4-1.18 0.75-0.77 1.12-1.9 1.12-3.36v-15.1z" fill="#ff6635"/><path d="m166.34 99.696c0 1.93-0.25 3.66-0.73 5.2-0.48 1.53-1.13 2.88-1.93 4.05s-1.74 2.16-2.8 2.98c-1.07 0.82-2.18 1.5-3.35 2-1.16 0.52-2.34 0.9-3.53 1.15-1.2 0.24-2.33 0.36-3.4 0.36h-20.2c-1.94 0-3.66-0.25-5.18-0.74-1.53-0.48-2.87-1.14-4.03-1.96-1.18-0.82-2.17-1.76-3-2.82-0.8-1.06-1.47-2.18-2-3.34-0.5-1.17-0.9-2.35-1.13-3.54-0.25-1.2-0.37-2.3-0.37-3.34v-15.16c0-2.9 0.52-5.32 1.57-7.32s2.36-3.62 3.93-4.87c1.56-1.24 3.26-2.14 5.1-2.68 1.84-0.55 3.54-0.82 5.1-0.82h20.2v11.2h-20.09c-1.5 0-2.63 0.4-3.4 1.15-0.8 0.76-1.17 1.87-1.17 3.34v15.08c0 1.52 0.4 2.67 1.15 3.44 0.76 0.78 1.87 1.17 3.34 1.17h20.2c1.53 0 2.66-0.4 3.4-1.18 0.76-0.77 1.13-1.9 1.13-3.36v-50.55h11.2z" fill="#ff6635"/><path d="m227.16 84.266c0 1.55-0.27 3.22-0.82 5.02s-1.43 3.46-2.65 5c-1.23 1.54-2.83 2.82-4.8 3.86-1.96 1.04-4.36 1.56-7.17 1.56h-20.22v-10.67h20.23c1.52 0 2.7-0.45 3.53-1.4 0.83-0.92 1.25-2.08 1.25-3.46 0-1.46-0.46-2.6-1.4-3.44-0.92-0.84-2.05-1.26-3.37-1.26h-20.24c-1.5 0-2.7 0.47-3.52 1.4-0.84 0.94-1.25 2.1-1.25 3.48v15.64c0 1.5 0.46 2.66 1.4 3.5 0.93 0.83 2.1 1.24 3.47 1.24h20.13v10.7h-20.23c-1.54 0-3.2-0.28-5-0.83-1.8-0.54-3.47-1.42-5-2.65-1.55-1.22-2.83-2.8-3.87-4.78-1.03-1.97-1.55-4.36-1.55-7.18v-15.73c0-1.55 0.27-3.23 0.82-5.02 0.55-1.8 1.43-3.46 2.65-5 1.22-1.53 2.82-2.82 4.8-3.85 1.95-1.03 4.35-1.55 7.16-1.55h20.23c1.55 0 3.22 0.27 5.02 0.82 1.8 0.54 3.46 1.43 5 2.65s2.82 2.8 3.86 4.78c1.04 1.97 1.56 4.36 1.56 7.18zm-17.43 20.47h20.14v10.7h-20.14z" fill="#ff6635"/><path d="m286.08 99.696c0 1.93-0.24 3.66-0.73 5.2-0.5 1.53-1.13 2.88-1.94 4.05-0.8 1.17-1.73 2.16-2.8 2.98-1.05 0.82-2.17 1.5-3.33 2-1.16 0.52-2.34 0.9-3.5 1.15-1.2 0.24-2.3 0.36-3.38 0.36h-20.22v-11.2h20.2c1.5 0 2.63-0.4 3.38-1.18 0.74-0.77 1.12-1.9 1.12-3.36v-15.1c0-1.54-0.38-2.7-1.14-3.43-0.77-0.75-1.88-1.13-3.35-1.13h-20.14c-1.52 0-2.67 0.4-3.44 1.15-0.78 0.76-1.17 1.87-1.17 3.34v45.46h-11.2v-45.45c0-1.94 0.24-3.66 0.73-5.2 0.5-1.5 1.14-2.85 1.96-4.02 0.82-1.16 1.76-2.15 2.82-2.97 1.06-0.8 2.18-1.48 3.34-2 1.17-0.5 2.34-0.9 3.54-1.14s2.3-0.36 3.34-0.36h20.2c1.94 0 3.66 0.24 5.2 0.73 1.5 0.5 2.85 1.14 4.02 1.94 1.16 0.8 2.15 1.74 2.97 2.8 0.82 1.07 1.5 2.18 2 3.34 0.52 1.18 0.9 2.35 1.15 3.53 0.24 1.17 0.36 2.3 0.36 3.36z" fill="#357ec0"/><path d="m346.34 99.696c0 1.93-0.24 3.66-0.73 5.2-0.48 1.53-1.12 2.88-1.93 4.05-0.8 1.17-1.74 2.16-2.8 2.98s-2.18 1.5-3.34 2c-1.16 0.52-2.34 0.9-3.53 1.15-1.2 0.24-2.33 0.36-3.4 0.36h-20.2c-1.56 0-3.25-0.28-5.1-0.82-1.83-0.55-3.53-1.45-5.1-2.7s-2.87-2.87-3.92-4.87c-1.05-1.98-1.57-4.43-1.57-7.34v-15.17c0-2.9 0.53-5.32 1.58-7.32s2.35-3.62 3.92-4.87c1.57-1.24 3.27-2.14 5.1-2.68 1.85-0.55 3.54-0.82 5.1-0.82h20.2c2.88 0 5.33 0.52 7.34 1.55 2 1.03 3.63 2.33 4.87 3.9s2.14 3.27 2.7 5.1c0.56 1.85 0.84 3.56 0.84 5.14zm-11.2-15.1c0-1.54-0.4-2.7-1.17-3.43-0.77-0.75-1.9-1.12-3.36-1.12h-20.11c-1.5 0-2.63 0.4-3.4 1.15-0.78 0.76-1.17 1.87-1.17 3.34v15.16c0 1.47 0.4 2.6 1.18 3.36 0.77 0.78 1.9 1.17 3.4 1.17h20.13c1.53 0 2.67-0.4 3.42-1.18 0.74-0.77 1.12-1.9 1.12-3.36z" fill="#357ec0"/><path d="m398.03 80.036h-19.57v35.4h-11.34v-35.4h-14.57v-11.2h14.57v-15.22h11.34v15.22h19.57z" fill="#357ec0"/><path d="m455.36 84.266c0 1.55-0.28 3.22-0.82 5.02-0.55 1.8-1.43 3.46-2.65 5-1.24 1.54-2.83 2.82-4.8 3.86s-4.36 1.56-7.18 1.56h-20.2v-10.67h20.2c1.53 0 2.7-0.45 3.54-1.4 0.83-0.92 1.25-2.08 1.25-3.46 0-1.46-0.46-2.6-1.4-3.44-0.93-0.84-2.05-1.26-3.38-1.26h-20.2c-1.53 0-2.7 0.47-3.55 1.4-0.83 0.94-1.25 2.1-1.25 3.48v15.64c0 1.5 0.47 2.66 1.4 3.5 0.94 0.83 2.1 1.24 3.47 1.24h20.12v10.7h-20.2c-1.56 0-3.24-0.28-5.03-0.83-1.8-0.54-3.48-1.42-5-2.65-1.55-1.22-2.84-2.8-3.87-4.78-1.03-1.97-1.55-4.36-1.55-7.18v-15.73c0-1.55 0.27-3.23 0.82-5.02 0.54-1.8 1.43-3.46 2.65-5 1.22-1.53 2.8-2.82 4.78-3.85 1.97-1.03 4.36-1.55 7.18-1.55h20.22c1.56 0 3.23 0.27 5.03 0.82 1.8 0.54 3.46 1.43 5 2.65 1.53 1.22 2.82 2.8 3.85 4.78 1.04 1.97 1.56 4.36 1.56 7.18z" fill="#357ec0"/><path d="m514.54 115.44h-11.2v-25.88c0-1.46-0.26-2.78-0.76-3.94-0.5-1.18-1.2-2.17-2.05-3-0.86-0.84-1.88-1.48-3.04-1.93-1.17-0.44-2.43-0.66-3.78-0.66h-19.6v35.4h-11.21v-41.03c0-0.78 0.14-1.5 0.43-2.18 0.3-0.67 0.7-1.26 1.2-1.77 0.53-0.5 1.13-0.88 1.82-1.17 0.7-0.3 1.42-0.43 2.2-0.43h25.26c1.4 0 2.9 0.15 4.47 0.47 1.56 0.32 3.1 0.83 4.65 1.53 1.54 0.7 3 1.6 4.4 2.67 1.4 1.08 2.63 2.4 3.7 3.93 1.08 1.53 1.94 3.3 2.57 5.32 0.62 2 0.94 4.28 0.94 6.8z" fill="#357ec0"/><path d="m565.36 80.036h-19.56v35.4h-11.35v-35.4h-14.57v-11.2h14.57v-15.22h11.34v15.22h19.56z" fill="#357ec0"/></g></svg>