<?xml version="1.0" encoding="utf-8"?>
<svg version="1.1"
	 id="Livello_1" xmlns:cc="http://creativecommons.org/ns#" xmlns:dc="http://purl.org/dc/elements/1.1/" xmlns:rdf="http://www.w3.org/1999/02/22-rdf-syntax-ns#"
	 xmlns="http://www.w3.org/2000/svg" xmlns:xlink="http://www.w3.org/1999/xlink" x="0px" y="0px" viewBox="0 0 740 280"
	 style="enable-background:new 0 0 740 280;" xml:space="preserve">
<style type="text/css">
	.st0{fill:#FF6635;}
	.st1{fill:#357EC0;}
	.st2{fill:#C8C8C8;}
</style>
<g>
	<path class="st0" d="M106.9,85.2c0,0.6-0.1,1.2-0.3,1.7c-0.2,0.5-0.5,1-0.9,1.4c-0.4,0.4-0.9,0.7-1.4,0.9c-0.5,0.2-1.1,0.3-1.7,0.3
		H83.1c-1.8,0-3.7-0.2-5.6-0.6c-1.9-0.4-3.7-1-5.5-1.8s-3.4-1.9-5-3.2c-1.5-1.3-2.9-2.8-4.1-4.6s-2.1-3.8-2.7-6
		c-0.7-2.3-1-4.8-1-7.6V42h8.6v23.8c0,2.4,0.3,4.5,1,6.2c0.7,1.7,1.5,3.1,2.6,4.2c1,1.1,2.2,2,3.4,2.7c1.2,0.6,2.4,1.1,3.5,1.4
		c1.1,0.3,2.1,0.5,3,0.6c0.9,0.1,1.4,0.1,1.7,0.1h15.2V42h8.6V85.2z"/>
	<path class="st0" d="M155.4,77.4c0,1.5-0.2,2.8-0.6,4c-0.4,1.2-0.9,2.2-1.5,3.1c-0.6,0.9-1.3,1.7-2.2,2.3c-0.8,0.6-1.7,1.1-2.6,1.5
		s-1.8,0.7-2.7,0.9c-0.9,0.2-1.8,0.3-2.6,0.3h-15.6v-8.6h15.6c1.2,0,2-0.3,2.6-0.9c0.6-0.6,0.9-1.5,0.9-2.6V65.8
		c0-1.2-0.3-2.1-0.9-2.7c-0.6-0.6-1.4-0.9-2.6-0.9h-15.5c-1.2,0-2.1,0.3-2.7,0.9c-0.6,0.6-0.9,1.4-0.9,2.6v35h-8.6v-35
		c0-1.5,0.2-2.8,0.6-4c0.4-1.2,0.9-2.2,1.5-3.1s1.4-1.7,2.2-2.3c0.8-0.6,1.7-1.1,2.6-1.5s1.8-0.7,2.7-0.9c0.9-0.2,1.8-0.3,2.6-0.3
		h15.6c1.5,0,2.8,0.2,4,0.6c1.2,0.4,2.2,0.9,3.1,1.5c0.9,0.6,1.7,1.3,2.3,2.2c0.6,0.8,1.1,1.7,1.5,2.6s0.7,1.8,0.9,2.7
		c0.2,0.9,0.3,1.8,0.3,2.6V77.4z"/>
	<path class="st0" d="M202.1,77.4c0,1.5-0.2,2.8-0.6,4c-0.4,1.2-0.9,2.2-1.5,3.1c-0.6,0.9-1.3,1.7-2.2,2.3c-0.8,0.6-1.7,1.1-2.6,1.5
		s-1.8,0.7-2.7,0.9c-0.9,0.2-1.8,0.3-2.6,0.3h-15.6c-1.5,0-2.8-0.2-4-0.6c-1.2-0.4-2.2-0.9-3.1-1.5s-1.7-1.4-2.3-2.2
		c-0.6-0.8-1.1-1.7-1.5-2.6s-0.7-1.8-0.9-2.7c-0.2-0.9-0.3-1.8-0.3-2.6V65.8c0-2.2,0.4-4.1,1.2-5.6c0.8-1.5,1.8-2.8,3-3.8
		c1.2-1,2.5-1.7,3.9-2.1c1.4-0.4,2.7-0.6,3.9-0.6H190v8.6h-15.5c-1.2,0-2,0.3-2.6,0.9c-0.6,0.6-0.9,1.4-0.9,2.6v11.6
		c0,1.2,0.3,2.1,0.9,2.7c0.6,0.6,1.4,0.9,2.6,0.9H190c1.2,0,2-0.3,2.6-0.9c0.6-0.6,0.9-1.5,0.9-2.6V38.5h8.6V77.4z"/>
	<path class="st0" d="M247.4,77.7c0,1.2-0.2,2.5-0.6,3.9c-0.4,1.4-1.1,2.7-2,3.9c-0.9,1.2-2.2,2.2-3.7,3c-1.5,0.8-3.4,1.2-5.5,1.2
		H220c-1.2,0-2.5-0.2-3.9-0.6c-1.4-0.4-2.7-1.1-3.9-2c-1.2-0.9-2.2-2.2-3-3.7c-0.8-1.5-1.2-3.4-1.2-5.5c0-1.2,0.2-2.5,0.6-3.9
		c0.4-1.4,1.1-2.7,2-3.9c0.9-1.2,2.2-2.2,3.7-3c1.5-0.8,3.4-1.2,5.5-1.2h15.6V74H220c-1.2,0-2.1,0.4-2.7,1.1c-0.6,0.7-1,1.6-1,2.7
		c0,1.1,0.4,2,1.1,2.6c0.7,0.6,1.6,0.9,2.6,0.9h15.5c1.2,0,2.1-0.4,2.7-1.1c0.6-0.7,1-1.6,1-2.7V65.6c0-1.1-0.3-2-1-2.7
		s-1.6-1-2.6-1h-19v-8.2h19c1.2,0,2.5,0.2,3.9,0.6c1.4,0.4,2.7,1.1,3.9,2c1.2,0.9,2.2,2.2,3,3.7c0.8,1.5,1.2,3.4,1.2,5.5V77.7z"/>
	<path class="st0" d="M287.3,62.3h-15.1v27.3h-8.7V62.3h-11.2v-8.6h11.2V42h8.7v11.7h15.1V62.3z"/>
	<path class="st0" d="M331.5,65.6c0,1.2-0.2,2.5-0.6,3.9c-0.4,1.4-1.1,2.7-2,3.9c-0.9,1.2-2.2,2.2-3.7,3c-1.5,0.8-3.4,1.2-5.5,1.2
		H304v-8.2h15.6c1.2,0,2.1-0.4,2.7-1.1c0.6-0.7,1-1.6,1-2.7c0-1.1-0.4-2-1.1-2.7c-0.7-0.6-1.6-1-2.6-1H304c-1.2,0-2.1,0.4-2.7,1.1
		c-0.6,0.7-1,1.6-1,2.7v12.1c0,1.2,0.4,2,1.1,2.7c0.7,0.6,1.6,1,2.7,1h15.5v8.2H304c-1.2,0-2.5-0.2-3.9-0.6c-1.4-0.4-2.7-1.1-3.9-2
		c-1.2-0.9-2.2-2.2-3-3.7c-0.8-1.5-1.2-3.4-1.2-5.5V65.6c0-1.2,0.2-2.5,0.6-3.9c0.4-1.4,1.1-2.7,2-3.9c0.9-1.2,2.2-2.2,3.7-3
		c1.5-0.8,3.4-1.2,5.5-1.2h15.6c1.2,0,2.5,0.2,3.9,0.6c1.4,0.4,2.7,1.1,3.9,2c1.2,0.9,2.2,2.2,3,3.7
		C331.1,61.5,331.5,63.4,331.5,65.6z"/>
	<path class="st1" d="M415.8,89.6h-8.7V61.2l-15.3,26.9c-0.4,0.7-0.9,1.2-1.6,1.6c-0.7,0.4-1.4,0.5-2.2,0.5c-0.8,0-1.5-0.2-2.1-0.5
		c-0.7-0.4-1.2-0.9-1.5-1.6L369,61.2v28.4h-8.6V45.6c0-1,0.3-1.9,0.9-2.7c0.6-0.8,1.4-1.3,2.3-1.6c0.5-0.1,0.9-0.1,1.4-0.1
		s0.9,0.1,1.3,0.3s0.8,0.4,1.2,0.7c0.4,0.3,0.7,0.7,0.9,1.1L388,77.5l19.7-34.2c0.5-0.8,1.2-1.4,2.1-1.8c0.9-0.4,1.8-0.4,2.8-0.2
		c0.9,0.3,1.7,0.8,2.3,1.6c0.6,0.8,0.9,1.7,0.9,2.7V89.6z"/>
	<path class="st1" d="M461.7,77.7c0,1.2-0.2,2.5-0.6,3.9c-0.4,1.4-1.1,2.7-2,3.9c-0.9,1.2-2.2,2.2-3.7,3c-1.5,0.8-3.4,1.2-5.5,1.2
		h-15.6c-1.2,0-2.5-0.2-3.9-0.6c-1.4-0.4-2.7-1.1-3.9-2c-1.2-0.9-2.2-2.2-3-3.7c-0.8-1.5-1.2-3.4-1.2-5.5c0-1.2,0.2-2.5,0.6-3.9
		c0.4-1.4,1.1-2.7,2-3.9c0.9-1.2,2.2-2.2,3.7-3c1.5-0.8,3.4-1.2,5.5-1.2h15.6V74h-15.6c-1.2,0-2.1,0.4-2.7,1.1c-0.6,0.7-1,1.6-1,2.7
		c0,1.1,0.4,2,1.1,2.6c0.7,0.6,1.6,0.9,2.6,0.9h15.5c1.2,0,2.1-0.4,2.7-1.1c0.6-0.7,1-1.6,1-2.7V65.6c0-1.1-0.3-2-1-2.7
		s-1.6-1-2.6-1h-19v-8.2h19c1.2,0,2.5,0.2,3.9,0.6c1.4,0.4,2.7,1.1,3.9,2c1.2,0.9,2.2,2.2,3,3.7c0.8,1.5,1.2,3.4,1.2,5.5V77.7z"/>
	<path class="st1" d="M508.9,89.6h-8.6V69.6c0-1.1-0.2-2.1-0.6-3c-0.4-0.9-0.9-1.7-1.6-2.3c-0.7-0.6-1.4-1.1-2.3-1.5
		c-0.9-0.3-1.9-0.5-2.9-0.5h-15.1v27.3h-8.6V58c0-0.6,0.1-1.2,0.3-1.7c0.2-0.5,0.5-1,0.9-1.4c0.4-0.4,0.9-0.7,1.4-0.9
		c0.5-0.2,1.1-0.3,1.7-0.3h19.5c1.1,0,2.2,0.1,3.4,0.4c1.2,0.2,2.4,0.6,3.6,1.2c1.2,0.5,2.3,1.2,3.4,2.1c1.1,0.8,2,1.8,2.9,3
		c0.8,1.2,1.5,2.6,2,4.1c0.5,1.5,0.7,3.3,0.7,5.2V89.6z"/>
	<path class="st1" d="M553.5,77.7c0,1.2-0.2,2.5-0.6,3.9c-0.4,1.4-1.1,2.7-2,3.9c-0.9,1.2-2.2,2.2-3.7,3c-1.5,0.8-3.4,1.2-5.5,1.2
		H526c-1.2,0-2.5-0.2-3.9-0.6c-1.4-0.4-2.7-1.1-3.9-2c-1.2-0.9-2.2-2.2-3-3.7c-0.8-1.5-1.2-3.4-1.2-5.5c0-1.2,0.2-2.5,0.6-3.9
		c0.4-1.4,1.1-2.7,2-3.9c0.9-1.2,2.2-2.2,3.7-3c1.5-0.8,3.4-1.2,5.5-1.2h15.6V74H526c-1.2,0-2.1,0.4-2.7,1.1c-0.6,0.7-1,1.6-1,2.7
		c0,1.1,0.4,2,1.1,2.6c0.7,0.6,1.6,0.9,2.6,0.9h15.5c1.2,0,2.1-0.4,2.7-1.1c0.6-0.7,1-1.6,1-2.7V65.6c0-1.1-0.3-2-1-2.7
		s-1.6-1-2.6-1h-19v-8.2h19c1.2,0,2.5,0.2,3.9,0.6c1.4,0.4,2.7,1.1,3.9,2c1.2,0.9,2.2,2.2,3,3.7c0.8,1.5,1.2,3.4,1.2,5.5V77.7z"/>
	<path class="st1" d="M599.9,93c0,1.5-0.2,2.8-0.6,4c-0.4,1.2-0.9,2.2-1.5,3.1c-0.6,0.9-1.3,1.7-2.2,2.3c-0.8,0.6-1.7,1.1-2.6,1.5
		s-1.8,0.7-2.7,0.9c-0.9,0.2-1.8,0.3-2.6,0.3h-15.6v-8.6h15.6c1.2,0,2-0.3,2.6-0.9c0.6-0.6,0.9-1.5,0.9-2.6V65.8
		c0-1.1-0.3-2-0.9-2.6c-0.6-0.6-1.5-0.9-2.6-0.9h-15.6c-1.1,0-1.9,0.3-2.5,1c-0.6,0.7-0.9,1.5-0.9,2.5v11.7c0,1.1,0.3,2,0.9,2.6
		s1.5,0.9,2.6,0.9h15.5v8.6h-15.6c-0.8,0-1.7-0.1-2.6-0.3c-0.9-0.2-1.8-0.5-2.7-0.9s-1.8-0.9-2.6-1.5c-0.8-0.6-1.5-1.4-2.2-2.3
		c-0.6-0.9-1.1-1.9-1.5-3.1c-0.4-1.2-0.6-2.5-0.6-4V65.8c0-0.8,0.1-1.7,0.3-2.6c0.2-0.9,0.5-1.8,0.9-2.7s0.9-1.8,1.5-2.6
		c0.6-0.8,1.4-1.5,2.3-2.2c0.9-0.6,1.9-1.1,3.1-1.5c1.2-0.4,2.5-0.6,4-0.6h15.6c0.8,0,1.7,0.1,2.6,0.3c0.9,0.2,1.8,0.5,2.7,0.9
		s1.8,0.9,2.6,1.5c0.8,0.6,1.5,1.4,2.2,2.3c0.6,0.9,1.1,1.9,1.5,3.1c0.4,1.2,0.6,2.5,0.6,4V93z"/>
	<path class="st1" d="M646.4,65.6c0,1.2-0.2,2.5-0.6,3.9c-0.4,1.4-1.1,2.7-2,3.9c-0.9,1.2-2.2,2.2-3.7,3c-1.5,0.8-3.4,1.2-5.5,1.2
		H619v-8.2h15.6c1.2,0,2.1-0.4,2.7-1.1c0.6-0.7,1-1.6,1-2.7c0-1.1-0.4-2-1.1-2.7c-0.7-0.6-1.6-1-2.6-1H619c-1.2,0-2.1,0.4-2.7,1.1
		c-0.6,0.7-1,1.6-1,2.7v12.1c0,1.2,0.4,2,1.1,2.7c0.7,0.6,1.6,1,2.7,1h15.5v8.2H619c-1.2,0-2.5-0.2-3.9-0.6c-1.4-0.4-2.7-1.1-3.9-2
		c-1.2-0.9-2.2-2.2-3-3.7c-0.8-1.5-1.2-3.4-1.2-5.5V65.6c0-1.2,0.2-2.5,0.6-3.9c0.4-1.4,1.1-2.7,2-3.9c0.9-1.2,2.2-2.2,3.7-3
		c1.5-0.8,3.4-1.2,5.5-1.2h15.6c1.2,0,2.5,0.2,3.9,0.6c1.4,0.4,2.7,1.1,3.9,2c1.2,0.9,2.2,2.2,3,3.7C646,61.5,646.4,63.4,646.4,65.6
		z"/>
	<path class="st1" d="M683.7,62.3h-19.4c-1.2,0-2.1,0.3-2.7,0.9c-0.6,0.6-0.9,1.4-0.9,2.6v23.8H652V65.8c0-1.5,0.2-2.8,0.6-4
		c0.4-1.2,0.9-2.2,1.5-3.1s1.4-1.7,2.2-2.3c0.8-0.6,1.7-1.1,2.6-1.5s1.8-0.7,2.7-0.9c0.9-0.2,1.8-0.3,2.6-0.3h19.5V62.3z"/>
</g>
<g>
	<path class="st2" d="M59.1,122.3h5.5c0.9,0,1.7,0.1,2.5,0.2c0.8,0.2,1.4,0.5,2,0.9c0.6,0.4,1,0.9,1.3,1.6c0.3,0.6,0.5,1.4,0.5,2.4
		c0,0.9-0.2,1.7-0.5,2.3c-0.3,0.7-0.8,1.2-1.3,1.7c-0.6,0.4-1.2,0.8-2,1c-0.8,0.2-1.6,0.3-2.5,0.3H62v6h-2.9V122.3z M64.4,130.3
		c2.4,0,3.6-1,3.6-3c0-1-0.3-1.7-0.9-2.1c-0.6-0.4-1.5-0.6-2.7-0.6H62v5.7H64.4z"/>
	<path class="st2" d="M72.1,135.4c0-1.3,0.6-2.3,1.7-3.1c1.1-0.7,3-1.2,5.5-1.5c0-0.3,0-0.6-0.1-0.9c-0.1-0.3-0.2-0.5-0.4-0.8
		c-0.2-0.2-0.4-0.4-0.7-0.5s-0.6-0.2-1-0.2c-0.6,0-1.2,0.1-1.8,0.4c-0.6,0.2-1.1,0.5-1.7,0.9l-1.1-1.9c0.7-0.4,1.4-0.8,2.3-1.1
		c0.8-0.3,1.8-0.5,2.7-0.5c1.5,0,2.7,0.5,3.4,1.4c0.8,0.9,1.1,2.2,1.1,3.9v7.3h-2.4l-0.2-1.4h-0.1c-0.5,0.5-1.1,0.9-1.8,1.2
		s-1.3,0.5-2,0.5c-1.1,0-2-0.3-2.6-1C72.5,137.3,72.1,136.4,72.1,135.4z M75,135.1c0,0.5,0.2,0.9,0.5,1.2c0.3,0.2,0.7,0.4,1.3,0.4
		c0.5,0,1-0.1,1.4-0.3c0.4-0.2,0.9-0.6,1.3-1v-2.8c-0.8,0.1-1.5,0.2-2.1,0.4s-1,0.4-1.4,0.6c-0.3,0.2-0.6,0.4-0.7,0.7
		C75,134.5,75,134.8,75,135.1z"/>
	<path class="st2" d="M87.2,124.2c-0.5,0-0.9-0.2-1.3-0.5c-0.3-0.3-0.5-0.7-0.5-1.2s0.2-0.9,0.5-1.2c0.3-0.3,0.8-0.5,1.3-0.5
		s0.9,0.2,1.3,0.5s0.5,0.7,0.5,1.2s-0.2,0.9-0.5,1.2S87.7,124.2,87.2,124.2z M85.8,126.4h2.9v12.3h-2.9V126.4z"/>
	<path class="st2" d="M92.3,126.4h2.4l0.2,1.6H95c0.5-0.5,1.1-1,1.8-1.4c0.6-0.4,1.4-0.6,2.2-0.6c1.3,0,2.3,0.4,2.9,1.3
		c0.6,0.8,0.9,2,0.9,3.6v7.7h-2.9v-7.3c0-1-0.1-1.7-0.4-2.1c-0.3-0.4-0.8-0.6-1.5-0.6c-0.5,0-1,0.1-1.4,0.4
		c-0.4,0.3-0.9,0.6-1.4,1.1v8.6h-2.9V126.4z"/>
	<path class="st2" d="M106.3,121h2.9v14.6c0,0.4,0.1,0.6,0.2,0.7c0.1,0.1,0.3,0.2,0.4,0.2c0.1,0,0.1,0,0.2,0c0.1,0,0.1,0,0.3-0.1
		l0.4,2.1c-0.4,0.2-0.9,0.2-1.5,0.2c-1,0-1.8-0.3-2.2-0.9c-0.4-0.6-0.6-1.5-0.6-2.5V121z"/>
	<path class="st2" d="M112.3,132.5c0-1,0.2-1.9,0.5-2.7c0.3-0.8,0.7-1.5,1.3-2c0.5-0.5,1.1-1,1.8-1.3c0.7-0.3,1.4-0.5,2.1-0.5
		c0.8,0,1.6,0.1,2.2,0.4c0.6,0.3,1.2,0.7,1.6,1.2c0.4,0.5,0.7,1.1,1,1.9c0.2,0.7,0.3,1.5,0.3,2.4c0,0.6,0,1-0.1,1.4h-7.8
		c0.1,1.1,0.5,2,1.2,2.6c0.6,0.6,1.5,0.9,2.5,0.9c0.5,0,1-0.1,1.5-0.2c0.5-0.2,0.9-0.4,1.4-0.7l1,1.8c-0.6,0.4-1.2,0.7-1.9,0.9
		c-0.7,0.2-1.5,0.4-2.2,0.4c-0.9,0-1.6-0.1-2.4-0.4c-0.7-0.3-1.4-0.7-1.9-1.3c-0.5-0.6-1-1.2-1.3-2
		C112.4,134.4,112.3,133.5,112.3,132.5z M120.5,131.4c0-1-0.2-1.8-0.6-2.3c-0.4-0.6-1-0.8-1.9-0.8c-0.7,0-1.4,0.3-1.9,0.8
		c-0.6,0.5-0.9,1.3-1,2.3H120.5z"/>
	<path class="st2" d="M125.9,135.4c0.5,0.4,1.1,0.8,1.6,1s1.1,0.4,1.8,0.4c0.7,0,1.2-0.1,1.5-0.4c0.3-0.3,0.5-0.6,0.5-1.1
		c0-0.2-0.1-0.5-0.2-0.7c-0.2-0.2-0.4-0.4-0.6-0.5s-0.5-0.3-0.9-0.4c-0.3-0.1-0.6-0.3-1-0.4c-0.4-0.1-0.8-0.3-1.2-0.5
		c-0.4-0.2-0.8-0.4-1.1-0.7c-0.3-0.3-0.6-0.6-0.8-1c-0.2-0.4-0.3-0.8-0.3-1.3c0-1.1,0.4-2,1.2-2.6c0.8-0.7,1.9-1,3.3-1
		c0.8,0,1.6,0.2,2.3,0.5c0.7,0.3,1.3,0.6,1.8,1l-1.3,1.8c-0.4-0.3-0.9-0.6-1.3-0.8c-0.4-0.2-0.9-0.3-1.4-0.3c-0.6,0-1.1,0.1-1.4,0.4
		c-0.3,0.3-0.4,0.6-0.4,1c0,0.2,0.1,0.5,0.2,0.6c0.1,0.2,0.3,0.3,0.6,0.5c0.2,0.1,0.5,0.3,0.8,0.4c0.3,0.1,0.6,0.2,1,0.4
		c0.4,0.1,0.8,0.3,1.2,0.5c0.4,0.2,0.8,0.4,1.1,0.7c0.3,0.3,0.6,0.6,0.8,1c0.2,0.4,0.3,0.9,0.3,1.5c0,0.5-0.1,1-0.3,1.5
		c-0.2,0.5-0.5,0.9-0.9,1.2c-0.4,0.3-0.9,0.6-1.5,0.8c-0.6,0.2-1.3,0.3-2,0.3c-0.9,0-1.7-0.2-2.5-0.5c-0.8-0.3-1.5-0.7-2.1-1.2
		L125.9,135.4z"/>
	<path class="st2" d="M136.6,135.4c0.5,0.4,1.1,0.8,1.6,1s1.1,0.4,1.8,0.4c0.7,0,1.2-0.1,1.5-0.4c0.3-0.3,0.5-0.6,0.5-1.1
		c0-0.2-0.1-0.5-0.2-0.7c-0.2-0.2-0.4-0.4-0.6-0.5s-0.5-0.3-0.9-0.4c-0.3-0.1-0.6-0.3-1-0.4c-0.4-0.1-0.8-0.3-1.2-0.5
		c-0.4-0.2-0.8-0.4-1.1-0.7c-0.3-0.3-0.6-0.6-0.8-1c-0.2-0.4-0.3-0.8-0.3-1.3c0-1.1,0.4-2,1.2-2.6c0.8-0.7,1.9-1,3.3-1
		c0.8,0,1.6,0.2,2.3,0.5c0.7,0.3,1.3,0.6,1.8,1l-1.3,1.8c-0.4-0.3-0.9-0.6-1.3-0.8c-0.4-0.2-0.9-0.3-1.4-0.3c-0.6,0-1.1,0.1-1.4,0.4
		c-0.3,0.3-0.4,0.6-0.4,1c0,0.2,0.1,0.5,0.2,0.6c0.1,0.2,0.3,0.3,0.6,0.5c0.2,0.1,0.5,0.3,0.8,0.4c0.3,0.1,0.6,0.2,1,0.4
		c0.4,0.1,0.8,0.3,1.2,0.5c0.4,0.2,0.8,0.4,1.1,0.7c0.3,0.3,0.6,0.6,0.8,1c0.2,0.4,0.3,0.9,0.3,1.5c0,0.5-0.1,1-0.3,1.5
		c-0.2,0.5-0.5,0.9-0.9,1.2c-0.4,0.3-0.9,0.6-1.5,0.8c-0.6,0.2-1.3,0.3-2,0.3c-0.9,0-1.7-0.2-2.5-0.5c-0.8-0.3-1.5-0.7-2.1-1.2
		L136.6,135.4z"/>
	<path class="st2" d="M147.3,121h2.9v14.6c0,0.4,0.1,0.6,0.2,0.7c0.1,0.1,0.3,0.2,0.4,0.2c0.1,0,0.1,0,0.2,0c0.1,0,0.1,0,0.3-0.1
		l0.4,2.1c-0.4,0.2-0.9,0.2-1.5,0.2c-1,0-1.8-0.3-2.2-0.9c-0.4-0.6-0.6-1.5-0.6-2.5V121z"/>
	<path class="st2" d="M154.2,141.3c0.2,0,0.3,0.1,0.5,0.1c0.6,0,1.2-0.2,1.6-0.6c0.4-0.4,0.7-0.9,0.9-1.5l0.2-0.8l-4.8-12.1h2.9
		l2.1,6c0.2,0.5,0.4,1.1,0.5,1.7c0.2,0.6,0.4,1.2,0.5,1.8h0.1c0.1-0.6,0.3-1.1,0.5-1.7c0.2-0.6,0.3-1.2,0.5-1.7l1.8-6h2.8l-4.5,12.8
		c-0.2,0.7-0.5,1.3-0.8,1.9c-0.3,0.6-0.6,1-1,1.4c-0.4,0.4-0.8,0.7-1.4,0.9c-0.5,0.2-1.1,0.3-1.8,0.3c-0.3,0-0.6,0-0.9-0.1
		c-0.2,0-0.5-0.1-0.7-0.2l0.5-2.2C153.9,141.2,154.1,141.3,154.2,141.3z"/>
	<path class="st2" d="M175.2,139.6v3.9h-2.9v-17.1h2.4l0.2,1.3h0.1c0.5-0.4,1.1-0.8,1.7-1.1c0.6-0.3,1.3-0.5,2-0.5
		c0.8,0,1.4,0.1,2,0.4c0.6,0.3,1.1,0.7,1.5,1.3c0.4,0.5,0.7,1.2,1,2c0.2,0.8,0.3,1.6,0.3,2.6c0,1.1-0.1,2-0.4,2.8
		c-0.3,0.8-0.7,1.5-1.2,2.1c-0.5,0.6-1,1-1.7,1.3c-0.6,0.3-1.3,0.4-2,0.4c-0.5,0-1.1-0.1-1.6-0.3c-0.5-0.2-1-0.6-1.5-1L175.2,139.6z
		 M175.2,135.5c0.4,0.4,0.9,0.6,1.3,0.8c0.4,0.1,0.8,0.2,1.2,0.2c0.8,0,1.5-0.4,2.1-1.1c0.5-0.7,0.8-1.8,0.8-3.2
		c0-1.2-0.2-2.2-0.6-2.9s-1.1-1-2-1c-0.9,0-1.8,0.5-2.7,1.4V135.5z"/>
	<path class="st2" d="M186.3,126.4h2.9v7.3c0,1,0.1,1.7,0.4,2.2c0.3,0.4,0.8,0.6,1.5,0.6c0.5,0,1-0.1,1.4-0.4
		c0.4-0.3,0.8-0.7,1.3-1.3v-8.4h2.9v12.3h-2.4l-0.2-1.8H194c-0.5,0.6-1.1,1.1-1.7,1.5s-1.4,0.6-2.2,0.6c-1.3,0-2.3-0.4-2.9-1.3
		c-0.6-0.8-0.9-2-0.9-3.6V126.4z"/>
	<path class="st2" d="M200.5,135.4c0.5,0.4,1.1,0.8,1.6,1s1.1,0.4,1.8,0.4c0.7,0,1.2-0.1,1.5-0.4c0.3-0.3,0.5-0.6,0.5-1.1
		c0-0.2-0.1-0.5-0.2-0.7c-0.2-0.2-0.4-0.4-0.6-0.5s-0.5-0.3-0.9-0.4c-0.3-0.1-0.6-0.3-1-0.4c-0.4-0.1-0.8-0.3-1.2-0.5
		c-0.4-0.2-0.8-0.4-1.1-0.7c-0.3-0.3-0.6-0.6-0.8-1c-0.2-0.4-0.3-0.8-0.3-1.3c0-1.1,0.4-2,1.2-2.6c0.8-0.7,1.9-1,3.3-1
		c0.8,0,1.6,0.2,2.3,0.5c0.7,0.3,1.3,0.6,1.8,1l-1.3,1.8c-0.4-0.3-0.9-0.6-1.3-0.8c-0.4-0.2-0.9-0.3-1.4-0.3c-0.6,0-1.1,0.1-1.4,0.4
		c-0.3,0.3-0.4,0.6-0.4,1c0,0.2,0.1,0.5,0.2,0.6c0.1,0.2,0.3,0.3,0.6,0.5c0.2,0.1,0.5,0.3,0.8,0.4c0.3,0.1,0.6,0.2,1,0.4
		c0.4,0.1,0.8,0.3,1.2,0.5c0.4,0.2,0.8,0.4,1.1,0.7c0.3,0.3,0.6,0.6,0.8,1c0.2,0.4,0.3,0.9,0.3,1.5c0,0.5-0.1,1-0.3,1.5
		c-0.2,0.5-0.5,0.9-0.9,1.2c-0.4,0.3-0.9,0.6-1.5,0.8c-0.6,0.2-1.3,0.3-2,0.3c-0.9,0-1.7-0.2-2.5-0.5c-0.8-0.3-1.5-0.7-2.1-1.2
		L200.5,135.4z"/>
	<path class="st2" d="M211.1,121h2.9v4.5l-0.1,2.4c0.5-0.5,1.1-0.9,1.7-1.3s1.4-0.6,2.2-0.6c1.3,0,2.3,0.4,2.9,1.3
		c0.6,0.8,0.9,2,0.9,3.6v7.7h-2.9v-7.3c0-1-0.1-1.7-0.4-2.1c-0.3-0.4-0.8-0.6-1.5-0.6c-0.5,0-1,0.1-1.4,0.4
		c-0.4,0.3-0.9,0.6-1.4,1.1v8.6h-2.9V121z"/>
	<path class="st2" d="M230.8,126.4h2.9v7.3c0,1,0.1,1.7,0.4,2.2c0.3,0.4,0.8,0.6,1.5,0.6c0.5,0,1-0.1,1.4-0.4
		c0.4-0.3,0.8-0.7,1.3-1.3v-8.4h2.9v12.3h-2.4l-0.2-1.8h-0.1c-0.5,0.6-1.1,1.1-1.7,1.5s-1.4,0.6-2.2,0.6c-1.3,0-2.3-0.4-2.9-1.3
		c-0.6-0.8-0.9-2-0.9-3.6V126.4z"/>
	<path class="st2" d="M247.7,139.6v3.9h-2.9v-17.1h2.4l0.2,1.3h0.1c0.5-0.4,1.1-0.8,1.7-1.1c0.6-0.3,1.3-0.5,2-0.5
		c0.8,0,1.4,0.1,2,0.4c0.6,0.3,1.1,0.7,1.5,1.3c0.4,0.5,0.7,1.2,1,2c0.2,0.8,0.3,1.6,0.3,2.6c0,1.1-0.1,2-0.4,2.8
		c-0.3,0.8-0.7,1.5-1.2,2.1c-0.5,0.6-1,1-1.7,1.3c-0.6,0.3-1.3,0.4-2,0.4c-0.5,0-1.1-0.1-1.6-0.3c-0.5-0.2-1-0.6-1.5-1L247.7,139.6z
		 M247.7,135.5c0.4,0.4,0.9,0.6,1.3,0.8c0.4,0.1,0.8,0.2,1.2,0.2c0.8,0,1.5-0.4,2.1-1.1c0.5-0.7,0.8-1.8,0.8-3.2
		c0-1.2-0.2-2.2-0.6-2.9s-1.1-1-2-1c-0.9,0-1.8,0.5-2.7,1.4V135.5z"/>
	<path class="st2" d="M258.2,132.5c0-1,0.1-1.9,0.4-2.7c0.3-0.8,0.7-1.5,1.2-2c0.5-0.5,1-1,1.7-1.3s1.3-0.5,1.9-0.5
		c0.7,0,1.3,0.1,1.8,0.4s1,0.6,1.5,1l-0.1-2V121h2.9v17.6H267l-0.2-1.3h-0.1c-0.5,0.5-1,0.8-1.6,1.2s-1.2,0.5-1.9,0.5
		c-1.5,0-2.8-0.6-3.7-1.7C258.6,136.1,258.2,134.6,258.2,132.5z M261.2,132.5c0,1.3,0.2,2.3,0.7,3c0.5,0.7,1.2,1,2.1,1
		c0.9,0,1.8-0.5,2.6-1.4v-5.7c-0.4-0.4-0.9-0.7-1.3-0.8c-0.4-0.1-0.8-0.2-1.2-0.2c-0.8,0-1.5,0.4-2,1.1
		C261.4,130.2,261.2,131.2,261.2,132.5z"/>
	<path class="st2" d="M272.5,135.4c0-1.3,0.6-2.3,1.7-3.1c1.1-0.7,3-1.2,5.5-1.5c0-0.3,0-0.6-0.1-0.9c-0.1-0.3-0.2-0.5-0.4-0.8
		c-0.2-0.2-0.4-0.4-0.7-0.5s-0.6-0.2-1-0.2c-0.6,0-1.2,0.1-1.8,0.4c-0.6,0.2-1.1,0.5-1.7,0.9l-1.1-1.9c0.7-0.4,1.4-0.8,2.3-1.1
		c0.8-0.3,1.8-0.5,2.7-0.5c1.5,0,2.7,0.5,3.4,1.4c0.8,0.9,1.1,2.2,1.1,3.9v7.3h-2.4l-0.2-1.4H280c-0.5,0.5-1.1,0.9-1.8,1.2
		s-1.3,0.5-2,0.5c-1.1,0-2-0.3-2.6-1C272.9,137.3,272.5,136.4,272.5,135.4z M275.3,135.1c0,0.5,0.2,0.9,0.5,1.2
		c0.3,0.2,0.7,0.4,1.3,0.4c0.5,0,1-0.1,1.4-0.3c0.4-0.2,0.9-0.6,1.3-1v-2.8c-0.8,0.1-1.5,0.2-2.1,0.4s-1,0.4-1.4,0.6
		c-0.3,0.2-0.6,0.4-0.7,0.7C275.4,134.5,275.3,134.8,275.3,135.1z"/>
	<path class="st2" d="M286.5,128.6h-1.8v-2.1l1.9-0.1l0.4-3.4h2.4v3.4h3.1v2.3h-3.1v5.9c0,1.4,0.6,2.1,1.7,2.1c0.2,0,0.4,0,0.7-0.1
		c0.2,0,0.4-0.1,0.6-0.2l0.5,2.1c-0.3,0.1-0.7,0.2-1.1,0.3c-0.4,0.1-0.9,0.1-1.4,0.1c-0.7,0-1.3-0.1-1.8-0.3s-0.9-0.5-1.2-0.9
		c-0.3-0.4-0.5-0.9-0.7-1.4s-0.2-1.1-0.2-1.8V128.6z"/>
	<path class="st2" d="M294.1,132.5c0-1,0.2-1.9,0.5-2.7c0.3-0.8,0.7-1.5,1.3-2c0.5-0.5,1.1-1,1.8-1.3c0.7-0.3,1.4-0.5,2.1-0.5
		c0.8,0,1.6,0.1,2.2,0.4c0.6,0.3,1.2,0.7,1.6,1.2c0.4,0.5,0.7,1.1,1,1.9c0.2,0.7,0.3,1.5,0.3,2.4c0,0.6,0,1-0.1,1.4h-7.8
		c0.1,1.1,0.5,2,1.2,2.6c0.6,0.6,1.5,0.9,2.5,0.9c0.5,0,1-0.1,1.5-0.2c0.5-0.2,0.9-0.4,1.4-0.7l1,1.8c-0.6,0.4-1.2,0.7-1.9,0.9
		c-0.7,0.2-1.5,0.4-2.2,0.4c-0.9,0-1.6-0.1-2.4-0.4c-0.7-0.3-1.4-0.7-1.9-1.3c-0.5-0.6-1-1.2-1.3-2
		C294.2,134.4,294.1,133.5,294.1,132.5z M302.3,131.4c0-1-0.2-1.8-0.6-2.3c-0.4-0.6-1-0.8-1.9-0.8c-0.7,0-1.4,0.3-1.9,0.8
		c-0.6,0.5-0.9,1.3-1,2.3H302.3z"/>
	<path class="st2" d="M307.7,135.4c0.5,0.4,1.1,0.8,1.6,1s1.1,0.4,1.8,0.4c0.7,0,1.2-0.1,1.5-0.4c0.3-0.3,0.5-0.6,0.5-1.1
		c0-0.2-0.1-0.5-0.2-0.7c-0.2-0.2-0.4-0.4-0.6-0.5s-0.5-0.3-0.9-0.4c-0.3-0.1-0.6-0.3-1-0.4c-0.4-0.1-0.8-0.3-1.2-0.5
		c-0.4-0.2-0.8-0.4-1.1-0.7c-0.3-0.3-0.6-0.6-0.8-1c-0.2-0.4-0.3-0.8-0.3-1.3c0-1.1,0.4-2,1.2-2.6c0.8-0.7,1.9-1,3.3-1
		c0.8,0,1.6,0.2,2.3,0.5c0.7,0.3,1.3,0.6,1.8,1l-1.3,1.8c-0.4-0.3-0.9-0.6-1.3-0.8c-0.4-0.2-0.9-0.3-1.4-0.3c-0.6,0-1.1,0.1-1.4,0.4
		c-0.3,0.3-0.4,0.6-0.4,1c0,0.2,0.1,0.5,0.2,0.6c0.1,0.2,0.3,0.3,0.6,0.5c0.2,0.1,0.5,0.3,0.8,0.4c0.3,0.1,0.6,0.2,1,0.4
		c0.4,0.1,0.8,0.3,1.2,0.5c0.4,0.2,0.8,0.4,1.1,0.7c0.3,0.3,0.6,0.6,0.8,1c0.2,0.4,0.3,0.9,0.3,1.5c0,0.5-0.1,1-0.3,1.5
		c-0.2,0.5-0.5,0.9-0.9,1.2c-0.4,0.3-0.9,0.6-1.5,0.8c-0.6,0.2-1.3,0.3-2,0.3c-0.9,0-1.7-0.2-2.5-0.5c-0.8-0.3-1.5-0.7-2.1-1.2
		L307.7,135.4z"/>
	<path class="st2" d="M324.6,128.6h-1.8v-2.1l1.9-0.1l0.4-3.4h2.4v3.4h3.1v2.3h-3.1v5.9c0,1.4,0.6,2.1,1.7,2.1c0.2,0,0.4,0,0.7-0.1
		c0.2,0,0.4-0.1,0.6-0.2l0.5,2.1c-0.3,0.1-0.7,0.2-1.1,0.3c-0.4,0.1-0.9,0.1-1.4,0.1c-0.7,0-1.3-0.1-1.8-0.3s-0.9-0.5-1.2-0.9
		c-0.3-0.4-0.5-0.9-0.7-1.4s-0.2-1.1-0.2-1.8V128.6z"/>
	<path class="st2" d="M332.2,132.5c0-1,0.2-1.9,0.5-2.7c0.3-0.8,0.7-1.5,1.3-2c0.5-0.5,1.2-1,1.9-1.3c0.7-0.3,1.4-0.4,2.2-0.4
		c0.8,0,1.5,0.1,2.2,0.4c0.7,0.3,1.3,0.7,1.9,1.3s1,1.2,1.3,2c0.3,0.8,0.5,1.7,0.5,2.7s-0.2,1.9-0.5,2.7c-0.3,0.8-0.8,1.5-1.3,2
		s-1.2,1-1.9,1.2c-0.7,0.3-1.4,0.4-2.2,0.4c-0.8,0-1.5-0.1-2.2-0.4c-0.7-0.3-1.3-0.7-1.9-1.2c-0.5-0.5-1-1.2-1.3-2
		C332.4,134.4,332.2,133.5,332.2,132.5z M335.1,132.5c0,1.2,0.3,2.2,0.8,3c0.5,0.7,1.2,1.1,2.1,1.1s1.6-0.4,2.1-1.1
		c0.5-0.7,0.8-1.7,0.8-3c0-1.2-0.3-2.2-0.8-3c-0.5-0.7-1.2-1.1-2.1-1.1s-1.6,0.4-2.1,1.1S335.1,131.3,335.1,132.5z"/>
	<path class="st2" d="M352.8,141.3c0.2,0,0.3,0.1,0.5,0.1c0.6,0,1.2-0.2,1.6-0.6c0.4-0.4,0.7-0.9,0.9-1.5l0.2-0.8l-4.8-12.1h2.9
		l2.1,6c0.2,0.5,0.4,1.1,0.5,1.7c0.2,0.6,0.4,1.2,0.5,1.8h0.1c0.1-0.6,0.3-1.1,0.5-1.7c0.2-0.6,0.3-1.2,0.5-1.7l1.8-6h2.8l-4.5,12.8
		c-0.2,0.7-0.5,1.3-0.8,1.9c-0.3,0.6-0.6,1-1,1.4c-0.4,0.4-0.8,0.7-1.4,0.9c-0.5,0.2-1.1,0.3-1.8,0.3c-0.3,0-0.6,0-0.9-0.1
		c-0.2,0-0.5-0.1-0.7-0.2l0.5-2.2C352.5,141.2,352.6,141.3,352.8,141.3z"/>
	<path class="st2" d="M364,132.5c0-1,0.2-1.9,0.5-2.7c0.3-0.8,0.7-1.5,1.3-2c0.5-0.5,1.2-1,1.9-1.3c0.7-0.3,1.4-0.4,2.2-0.4
		s1.5,0.1,2.2,0.4c0.7,0.3,1.3,0.7,1.9,1.3s1,1.2,1.3,2c0.3,0.8,0.5,1.7,0.5,2.7s-0.2,1.9-0.5,2.7c-0.3,0.8-0.8,1.5-1.3,2
		s-1.2,1-1.9,1.2c-0.7,0.3-1.4,0.4-2.2,0.4s-1.5-0.1-2.2-0.4s-1.3-0.7-1.9-1.2c-0.5-0.5-1-1.2-1.3-2
		C364.2,134.4,364,133.5,364,132.5z M367,132.5c0,1.2,0.3,2.2,0.8,3c0.5,0.7,1.2,1.1,2.1,1.1c0.9,0,1.6-0.4,2.1-1.1
		c0.5-0.7,0.8-1.7,0.8-3c0-1.2-0.3-2.2-0.8-3s-1.2-1.1-2.1-1.1c-0.9,0-1.6,0.4-2.1,1.1C367.2,130.3,367,131.3,367,132.5z"/>
	<path class="st2" d="M378.4,126.4h2.9v7.3c0,1,0.1,1.7,0.5,2.2c0.3,0.4,0.8,0.6,1.4,0.6c0.5,0,1-0.1,1.4-0.4
		c0.4-0.3,0.8-0.7,1.3-1.3v-8.4h2.9v12.3h-2.4l-0.2-1.8h-0.1c-0.5,0.6-1.1,1.1-1.7,1.5s-1.4,0.6-2.2,0.6c-1.3,0-2.3-0.4-2.9-1.3
		c-0.6-0.8-0.9-2-0.9-3.6V126.4z"/>
	<path class="st2" d="M392.5,126.4h2.4l0.2,2.2h0.1c0.4-0.8,1-1.4,1.6-1.8c0.6-0.4,1.2-0.6,1.9-0.6c0.6,0,1.1,0.1,1.4,0.2l-0.5,2.5
		c-0.2-0.1-0.4-0.1-0.6-0.1c-0.2,0-0.4,0-0.7,0c-0.5,0-1,0.2-1.5,0.6c-0.5,0.4-1,1-1.4,2v7.5h-2.9V126.4z"/>
	<path class="st2" d="M407.1,130.5c0-1.3,0.2-2.5,0.6-3.6c0.4-1.1,0.9-2,1.6-2.7s1.5-1.3,2.4-1.7c0.9-0.4,1.9-0.6,3-0.6
		c1,0,1.9,0.2,2.7,0.6c0.8,0.4,1.4,0.9,2,1.4l-1.6,1.8c-0.4-0.4-0.9-0.7-1.3-1c-0.5-0.2-1-0.4-1.7-0.4c-0.7,0-1.3,0.1-1.9,0.4
		s-1,0.7-1.5,1.2c-0.4,0.5-0.7,1.1-1,1.9c-0.2,0.7-0.3,1.6-0.3,2.5c0,1.9,0.4,3.3,1.2,4.4c0.8,1.1,1.9,1.6,3.3,1.6
		c0.7,0,1.4-0.1,1.9-0.4c0.5-0.3,1-0.7,1.5-1.2l1.6,1.8c-0.7,0.8-1.4,1.4-2.3,1.8c-0.8,0.4-1.8,0.6-2.8,0.6c-1.1,0-2-0.2-2.9-0.5
		c-0.9-0.4-1.7-0.9-2.3-1.6c-0.7-0.7-1.2-1.6-1.6-2.6C407.3,133.1,407.1,131.9,407.1,130.5z"/>
	<path class="st2" d="M422.1,121h2.9v14.6c0,0.4,0.1,0.6,0.2,0.7c0.1,0.1,0.3,0.2,0.4,0.2c0.1,0,0.1,0,0.2,0c0.1,0,0.1,0,0.3-0.1
		l0.4,2.1c-0.4,0.2-0.9,0.2-1.5,0.2c-1,0-1.8-0.3-2.2-0.9c-0.4-0.6-0.6-1.5-0.6-2.5V121z"/>
	<path class="st2" d="M428.3,135.4c0-1.3,0.6-2.3,1.7-3.1c1.1-0.7,3-1.2,5.5-1.5c0-0.3,0-0.6-0.1-0.9c-0.1-0.3-0.2-0.5-0.4-0.8
		s-0.4-0.4-0.7-0.5c-0.3-0.1-0.6-0.2-1-0.2c-0.6,0-1.2,0.1-1.8,0.4s-1.1,0.5-1.7,0.9l-1-1.9c0.7-0.4,1.4-0.8,2.3-1.1
		c0.8-0.3,1.8-0.5,2.7-0.5c1.5,0,2.7,0.5,3.5,1.4c0.8,0.9,1.1,2.2,1.1,3.9v7.3h-2.4l-0.2-1.4h-0.1c-0.5,0.5-1.1,0.9-1.8,1.2
		s-1.3,0.5-2,0.5c-1.1,0-2-0.3-2.6-1C428.6,137.3,428.3,136.4,428.3,135.4z M431.1,135.1c0,0.5,0.2,0.9,0.5,1.2
		c0.3,0.2,0.7,0.4,1.3,0.4c0.5,0,1-0.1,1.4-0.3c0.4-0.2,0.9-0.6,1.3-1v-2.8c-0.8,0.1-1.5,0.2-2.1,0.4s-1,0.4-1.4,0.6
		s-0.6,0.4-0.7,0.7C431.2,134.5,431.1,134.8,431.1,135.1z"/>
	<path class="st2" d="M442,135.4c0.5,0.4,1.1,0.8,1.6,1c0.5,0.2,1.1,0.4,1.8,0.4c0.7,0,1.2-0.1,1.5-0.4c0.3-0.3,0.5-0.6,0.5-1.1
		c0-0.2-0.1-0.5-0.2-0.7c-0.2-0.2-0.4-0.4-0.6-0.5s-0.5-0.3-0.8-0.4s-0.6-0.3-1-0.4c-0.4-0.1-0.8-0.3-1.2-0.5
		c-0.4-0.2-0.8-0.4-1.1-0.7c-0.3-0.3-0.6-0.6-0.8-1c-0.2-0.4-0.3-0.8-0.3-1.3c0-1.1,0.4-2,1.2-2.6s1.9-1,3.3-1
		c0.8,0,1.6,0.2,2.3,0.5s1.3,0.6,1.8,1l-1.3,1.8c-0.4-0.3-0.9-0.6-1.3-0.8c-0.4-0.2-0.9-0.3-1.4-0.3c-0.6,0-1.1,0.1-1.4,0.4
		c-0.3,0.3-0.4,0.6-0.4,1c0,0.2,0.1,0.5,0.2,0.6c0.1,0.2,0.3,0.3,0.6,0.5c0.2,0.1,0.5,0.3,0.8,0.4c0.3,0.1,0.6,0.2,1,0.4
		c0.4,0.1,0.8,0.3,1.2,0.5c0.4,0.2,0.8,0.4,1.1,0.7c0.3,0.3,0.6,0.6,0.8,1c0.2,0.4,0.3,0.9,0.3,1.5c0,0.5-0.1,1-0.3,1.5
		c-0.2,0.5-0.5,0.9-0.9,1.2c-0.4,0.3-0.9,0.6-1.5,0.8c-0.6,0.2-1.3,0.3-2,0.3c-0.8,0-1.7-0.2-2.5-0.5s-1.5-0.7-2.1-1.2L442,135.4z"
		/>
	<path class="st2" d="M452.8,135.4c0.5,0.4,1.1,0.8,1.6,1c0.5,0.2,1.1,0.4,1.8,0.4c0.7,0,1.2-0.1,1.5-0.4c0.3-0.3,0.5-0.6,0.5-1.1
		c0-0.2-0.1-0.5-0.2-0.7c-0.2-0.2-0.4-0.4-0.6-0.5s-0.5-0.3-0.8-0.4s-0.6-0.3-1-0.4c-0.4-0.1-0.8-0.3-1.2-0.5
		c-0.4-0.2-0.8-0.4-1.1-0.7c-0.3-0.3-0.6-0.6-0.8-1c-0.2-0.4-0.3-0.8-0.3-1.3c0-1.1,0.4-2,1.2-2.6s1.9-1,3.3-1
		c0.8,0,1.6,0.2,2.3,0.5s1.3,0.6,1.8,1l-1.3,1.8c-0.4-0.3-0.9-0.6-1.3-0.8c-0.4-0.2-0.9-0.3-1.4-0.3c-0.6,0-1.1,0.1-1.4,0.4
		c-0.3,0.3-0.4,0.6-0.4,1c0,0.2,0.1,0.5,0.2,0.6c0.1,0.2,0.3,0.3,0.6,0.5c0.2,0.1,0.5,0.3,0.8,0.4c0.3,0.1,0.6,0.2,1,0.4
		c0.4,0.1,0.8,0.3,1.2,0.5c0.4,0.2,0.8,0.4,1.1,0.7c0.3,0.3,0.6,0.6,0.8,1c0.2,0.4,0.3,0.9,0.3,1.5c0,0.5-0.1,1-0.3,1.5
		c-0.2,0.5-0.5,0.9-0.9,1.2c-0.4,0.3-0.9,0.6-1.5,0.8c-0.6,0.2-1.3,0.3-2,0.3c-0.8,0-1.7-0.2-2.5-0.5s-1.5-0.7-2.1-1.2L452.8,135.4z
		"/>
	<path class="st2" d="M464.9,124.2c-0.5,0-0.9-0.2-1.3-0.5c-0.3-0.3-0.5-0.7-0.5-1.2s0.2-0.9,0.5-1.2c0.3-0.3,0.8-0.5,1.3-0.5
		c0.5,0,0.9,0.2,1.3,0.5s0.5,0.7,0.5,1.2s-0.2,0.9-0.5,1.2S465.4,124.2,464.9,124.2z M463.5,126.4h2.9v12.3h-2.9V126.4z"/>
	<path class="st2" d="M469.2,132.5c0-1,0.2-1.9,0.5-2.7c0.3-0.8,0.8-1.5,1.3-2s1.2-1,2-1.3c0.7-0.3,1.5-0.4,2.3-0.4
		c0.8,0,1.5,0.1,2.1,0.4c0.6,0.3,1.1,0.6,1.5,1l-1.4,1.8c-0.3-0.3-0.7-0.5-1-0.7c-0.3-0.2-0.7-0.2-1.1-0.2c-1,0-1.8,0.4-2.4,1.1
		c-0.6,0.7-0.9,1.7-0.9,3c0,1.2,0.3,2.2,0.9,3c0.6,0.7,1.4,1.1,2.4,1.1c0.5,0,1-0.1,1.4-0.3s0.8-0.5,1.1-0.7l1.2,1.8
		c-0.6,0.5-1.2,0.9-1.9,1.2c-0.7,0.3-1.4,0.4-2.1,0.4c-0.8,0-1.6-0.1-2.3-0.4c-0.7-0.3-1.4-0.7-1.9-1.2s-0.9-1.2-1.2-2
		C469.4,134.4,469.2,133.5,469.2,132.5z"/>
	<path class="st2" d="M481.8,122.3h5.5c0.9,0,1.7,0.1,2.5,0.2c0.8,0.2,1.4,0.5,2,0.9c0.5,0.4,1,0.9,1.3,1.6c0.3,0.6,0.5,1.4,0.5,2.4
		c0,0.9-0.2,1.7-0.5,2.3c-0.3,0.7-0.8,1.2-1.3,1.7c-0.6,0.4-1.2,0.8-2,1c-0.8,0.2-1.6,0.3-2.5,0.3h-2.6v6h-2.9V122.3z M487.1,130.3
		c2.4,0,3.6-1,3.6-3c0-1-0.3-1.7-0.9-2.1c-0.6-0.4-1.5-0.6-2.7-0.6h-2.4v5.7H487.1z"/>
	<path class="st2" d="M496.4,126.4h2.4l0.2,2.2h0.1c0.4-0.8,1-1.4,1.6-1.8c0.6-0.4,1.2-0.6,1.9-0.6c0.6,0,1.1,0.1,1.4,0.2l-0.5,2.5
		c-0.2-0.1-0.4-0.1-0.6-0.1c-0.2,0-0.4,0-0.7,0c-0.5,0-1,0.2-1.5,0.6c-0.5,0.4-1,1-1.4,2v7.5h-2.9V126.4z"/>
	<path class="st2" d="M504.6,132.5c0-1,0.2-1.9,0.5-2.7c0.3-0.8,0.7-1.5,1.3-2c0.5-0.5,1.1-1,1.8-1.3c0.7-0.3,1.4-0.5,2.1-0.5
		c0.8,0,1.6,0.1,2.2,0.4c0.6,0.3,1.2,0.7,1.6,1.2c0.4,0.5,0.7,1.1,1,1.9c0.2,0.7,0.3,1.5,0.3,2.4c0,0.6,0,1-0.1,1.4h-7.8
		c0.1,1.1,0.5,2,1.2,2.6c0.6,0.6,1.5,0.9,2.5,0.9c0.5,0,1-0.1,1.5-0.2c0.5-0.2,0.9-0.4,1.4-0.7l1,1.8c-0.6,0.4-1.2,0.7-2,0.9
		c-0.7,0.2-1.5,0.4-2.2,0.4c-0.9,0-1.6-0.1-2.4-0.4c-0.7-0.3-1.4-0.7-1.9-1.3c-0.6-0.6-1-1.2-1.3-2
		C504.8,134.4,504.6,133.5,504.6,132.5z M512.9,131.4c0-1-0.2-1.8-0.6-2.3c-0.4-0.6-1-0.8-1.9-0.8c-0.7,0-1.4,0.3-1.9,0.8
		s-0.9,1.3-1,2.3H512.9z"/>
	<path class="st2" d="M518.2,135.4c0.5,0.4,1.1,0.8,1.6,1c0.5,0.2,1.1,0.4,1.8,0.4c0.7,0,1.2-0.1,1.5-0.4c0.3-0.3,0.5-0.6,0.5-1.1
		c0-0.2-0.1-0.5-0.2-0.7c-0.2-0.2-0.4-0.4-0.6-0.5s-0.5-0.3-0.8-0.4s-0.6-0.3-1-0.4c-0.4-0.1-0.8-0.3-1.2-0.5
		c-0.4-0.2-0.8-0.4-1.1-0.7c-0.3-0.3-0.6-0.6-0.8-1c-0.2-0.4-0.3-0.8-0.3-1.3c0-1.1,0.4-2,1.2-2.6s1.9-1,3.3-1
		c0.8,0,1.6,0.2,2.3,0.5s1.3,0.6,1.8,1l-1.3,1.8c-0.4-0.3-0.9-0.6-1.3-0.8c-0.4-0.2-0.9-0.3-1.4-0.3c-0.6,0-1.1,0.1-1.4,0.4
		c-0.3,0.3-0.4,0.6-0.4,1c0,0.2,0.1,0.5,0.2,0.6c0.1,0.2,0.3,0.3,0.6,0.5c0.2,0.1,0.5,0.3,0.8,0.4c0.3,0.1,0.6,0.2,1,0.4
		c0.4,0.1,0.8,0.3,1.2,0.5c0.4,0.2,0.8,0.4,1.1,0.7c0.3,0.3,0.6,0.6,0.8,1c0.2,0.4,0.3,0.9,0.3,1.5c0,0.5-0.1,1-0.3,1.5
		c-0.2,0.5-0.5,0.9-0.9,1.2c-0.4,0.3-0.9,0.6-1.5,0.8c-0.6,0.2-1.3,0.3-2,0.3c-0.8,0-1.7-0.2-2.5-0.5s-1.5-0.7-2.1-1.2L518.2,135.4z
		"/>
	<path class="st2" d="M529,135.4c0.5,0.4,1.1,0.8,1.6,1c0.5,0.2,1.1,0.4,1.8,0.4c0.7,0,1.2-0.1,1.5-0.4c0.3-0.3,0.5-0.6,0.5-1.1
		c0-0.2-0.1-0.5-0.2-0.7c-0.2-0.2-0.4-0.4-0.6-0.5s-0.5-0.3-0.8-0.4s-0.6-0.3-1-0.4c-0.4-0.1-0.8-0.3-1.2-0.5
		c-0.4-0.2-0.8-0.4-1.1-0.7c-0.3-0.3-0.6-0.6-0.8-1c-0.2-0.4-0.3-0.8-0.3-1.3c0-1.1,0.4-2,1.2-2.6s1.9-1,3.3-1
		c0.8,0,1.6,0.2,2.3,0.5s1.3,0.6,1.8,1l-1.3,1.8c-0.4-0.3-0.9-0.6-1.3-0.8c-0.4-0.2-0.9-0.3-1.4-0.3c-0.6,0-1.1,0.1-1.4,0.4
		c-0.3,0.3-0.4,0.6-0.4,1c0,0.2,0.1,0.5,0.2,0.6c0.1,0.2,0.3,0.3,0.6,0.5c0.2,0.1,0.5,0.3,0.8,0.4c0.3,0.1,0.6,0.2,1,0.4
		c0.4,0.1,0.8,0.3,1.2,0.5c0.4,0.2,0.8,0.4,1.1,0.7c0.3,0.3,0.6,0.6,0.8,1c0.2,0.4,0.3,0.9,0.3,1.5c0,0.5-0.1,1-0.3,1.5
		c-0.2,0.5-0.5,0.9-0.9,1.2c-0.4,0.3-0.9,0.6-1.5,0.8c-0.6,0.2-1.3,0.3-2,0.3c-0.8,0-1.7-0.2-2.5-0.5s-1.5-0.7-2.1-1.2L529,135.4z"
		/>
	<path class="st2" d="M548.4,139.6v3.9h-2.9v-17.1h2.4l0.2,1.3h0.1c0.5-0.4,1.1-0.8,1.7-1.1c0.6-0.3,1.3-0.5,2-0.5
		c0.8,0,1.4,0.1,2,0.4c0.6,0.3,1.1,0.7,1.5,1.3c0.4,0.5,0.7,1.2,1,2c0.2,0.8,0.3,1.6,0.3,2.6c0,1.1-0.1,2-0.4,2.8
		c-0.3,0.8-0.7,1.5-1.2,2.1c-0.5,0.6-1,1-1.7,1.3c-0.6,0.3-1.3,0.4-2,0.4c-0.5,0-1.1-0.1-1.6-0.3c-0.5-0.2-1-0.6-1.5-1L548.4,139.6z
		 M548.4,135.5c0.5,0.4,0.9,0.6,1.3,0.8c0.4,0.1,0.8,0.2,1.2,0.2c0.8,0,1.5-0.4,2-1.1c0.6-0.7,0.8-1.8,0.8-3.2
		c0-1.2-0.2-2.2-0.6-2.9s-1.1-1-2-1c-0.9,0-1.8,0.5-2.7,1.4V135.5z"/>
	<path class="st2" d="M559.6,121h2.9v14.6c0,0.4,0.1,0.6,0.2,0.7c0.1,0.1,0.3,0.2,0.4,0.2c0.1,0,0.1,0,0.2,0c0.1,0,0.1,0,0.3-0.1
		l0.4,2.1c-0.4,0.2-0.9,0.2-1.5,0.2c-1,0-1.8-0.3-2.2-0.9c-0.4-0.6-0.6-1.5-0.6-2.5V121z"/>
	<path class="st2" d="M566.3,126.4h2.9v7.3c0,1,0.1,1.7,0.5,2.2c0.3,0.4,0.8,0.6,1.4,0.6c0.5,0,1-0.1,1.4-0.4
		c0.4-0.3,0.8-0.7,1.3-1.3v-8.4h2.9v12.3h-2.4l-0.2-1.8H574c-0.5,0.6-1.1,1.1-1.7,1.5s-1.4,0.6-2.2,0.6c-1.3,0-2.3-0.4-2.9-1.3
		c-0.6-0.8-0.9-2-0.9-3.6V126.4z"/>
	<path class="st2" d="M579.5,140.9c0-0.5,0.2-1,0.5-1.4c0.3-0.4,0.7-0.8,1.3-1.2v-0.1c-0.3-0.2-0.6-0.5-0.8-0.8
		c-0.2-0.3-0.3-0.8-0.3-1.2c0-0.5,0.1-0.9,0.4-1.3s0.6-0.7,0.9-1v-0.1c-0.4-0.3-0.8-0.8-1.1-1.3s-0.5-1.2-0.5-1.9
		c0-0.7,0.1-1.3,0.4-1.9c0.3-0.6,0.6-1,1.1-1.4s1-0.7,1.5-0.9c0.6-0.2,1.2-0.3,1.8-0.3c0.3,0,0.7,0,1,0.1c0.3,0.1,0.6,0.1,0.8,0.2
		h4.4v2.1h-2.2c0.2,0.2,0.4,0.5,0.5,0.9c0.1,0.4,0.2,0.8,0.2,1.2c0,0.7-0.1,1.3-0.4,1.8c-0.2,0.5-0.6,0.9-1,1.3s-0.9,0.6-1.5,0.8
		c-0.6,0.2-1.2,0.3-1.8,0.3c-0.3,0-0.5,0-0.8-0.1c-0.3,0-0.6-0.1-0.8-0.2c-0.2,0.2-0.3,0.3-0.4,0.5c-0.1,0.2-0.2,0.4-0.2,0.7
		c0,0.3,0.1,0.6,0.4,0.8c0.3,0.2,0.8,0.3,1.6,0.3h2.2c1.5,0,2.6,0.2,3.4,0.7c0.8,0.5,1.1,1.2,1.1,2.3c0,0.6-0.2,1.2-0.5,1.7
		s-0.7,1-1.3,1.4c-0.6,0.4-1.3,0.7-2.1,0.9c-0.8,0.2-1.7,0.3-2.7,0.3c-0.7,0-1.4-0.1-2-0.2s-1.2-0.3-1.6-0.6c-0.5-0.3-0.8-0.6-1.1-1
		C579.6,141.9,579.5,141.4,579.5,140.9z M581.9,140.4c0,0.6,0.3,1,0.8,1.3c0.6,0.3,1.3,0.5,2.3,0.5c1,0,1.8-0.2,2.4-0.6
		c0.6-0.4,0.9-0.9,0.9-1.4c0-0.5-0.2-0.8-0.6-1c-0.4-0.2-0.9-0.2-1.6-0.2h-1.7c-0.7,0-1.2-0.1-1.7-0.2
		C582.2,139.3,581.9,139.9,581.9,140.4z M584.7,132.9c0.6,0,1.1-0.2,1.5-0.6c0.4-0.4,0.6-1,0.6-1.8c0-0.8-0.2-1.4-0.6-1.8
		c-0.4-0.4-0.9-0.6-1.5-0.6s-1.1,0.2-1.5,0.6c-0.4,0.4-0.6,1-0.6,1.8c0,0.8,0.2,1.4,0.6,1.8C583.6,132.7,584.1,132.9,584.7,132.9z"
		/>
	<path class="st2" d="M594.8,124.2c-0.5,0-0.9-0.2-1.3-0.5c-0.3-0.3-0.5-0.7-0.5-1.2s0.2-0.9,0.5-1.2c0.3-0.3,0.8-0.5,1.3-0.5
		c0.5,0,0.9,0.2,1.3,0.5s0.5,0.7,0.5,1.2s-0.2,0.9-0.5,1.2S595.3,124.2,594.8,124.2z M593.3,126.4h2.9v12.3h-2.9V126.4z"/>
	<path class="st2" d="M599.9,126.4h2.4l0.2,1.6h0.1c0.5-0.5,1.1-1,1.8-1.4c0.6-0.4,1.4-0.6,2.2-0.6c1.3,0,2.3,0.4,2.9,1.3
		c0.6,0.8,0.9,2,0.9,3.6v7.7h-2.9v-7.3c0-1-0.1-1.7-0.5-2.1c-0.3-0.4-0.8-0.6-1.5-0.6c-0.5,0-1,0.1-1.4,0.4
		c-0.4,0.3-0.9,0.6-1.4,1.1v8.6h-2.9V126.4z"/>
	<path class="st2" d="M619.6,126.4h2.9v7.3c0,1,0.1,1.7,0.5,2.2c0.3,0.4,0.8,0.6,1.4,0.6c0.5,0,1-0.1,1.4-0.4
		c0.4-0.3,0.8-0.7,1.3-1.3v-8.4h2.9v12.3h-2.4l-0.2-1.8h-0.1c-0.5,0.6-1.1,1.1-1.7,1.5s-1.4,0.6-2.2,0.6c-1.3,0-2.3-0.4-2.9-1.3
		c-0.6-0.8-0.9-2-0.9-3.6V126.4z"/>
	<path class="st2" d="M633.8,135.4c0.5,0.4,1.1,0.8,1.6,1c0.5,0.2,1.1,0.4,1.8,0.4c0.7,0,1.2-0.1,1.5-0.4c0.3-0.3,0.5-0.6,0.5-1.1
		c0-0.2-0.1-0.5-0.2-0.7c-0.2-0.2-0.4-0.4-0.6-0.5s-0.5-0.3-0.8-0.4s-0.6-0.3-1-0.4c-0.4-0.1-0.8-0.3-1.2-0.5
		c-0.4-0.2-0.8-0.4-1.1-0.7c-0.3-0.3-0.6-0.6-0.8-1c-0.2-0.4-0.3-0.8-0.3-1.3c0-1.1,0.4-2,1.2-2.6s1.9-1,3.3-1
		c0.8,0,1.6,0.2,2.3,0.5s1.3,0.6,1.8,1l-1.3,1.8c-0.4-0.3-0.9-0.6-1.3-0.8c-0.4-0.2-0.9-0.3-1.4-0.3c-0.6,0-1.1,0.1-1.4,0.4
		c-0.3,0.3-0.4,0.6-0.4,1c0,0.2,0.1,0.5,0.2,0.6c0.1,0.2,0.3,0.3,0.6,0.5c0.2,0.1,0.5,0.3,0.8,0.4c0.3,0.1,0.6,0.2,1,0.4
		c0.4,0.1,0.8,0.3,1.2,0.5c0.4,0.2,0.8,0.4,1.1,0.7c0.3,0.3,0.6,0.6,0.8,1c0.2,0.4,0.3,0.9,0.3,1.5c0,0.5-0.1,1-0.3,1.5
		c-0.2,0.5-0.5,0.9-0.9,1.2c-0.4,0.3-0.9,0.6-1.5,0.8c-0.6,0.2-1.3,0.3-2,0.3c-0.8,0-1.7-0.2-2.5-0.5s-1.5-0.7-2.1-1.2L633.8,135.4z
		"/>
	<path class="st2" d="M643.6,132.5c0-1,0.2-1.9,0.5-2.7c0.3-0.8,0.7-1.5,1.3-2c0.5-0.5,1.1-1,1.8-1.3c0.7-0.3,1.4-0.5,2.1-0.5
		c0.8,0,1.6,0.1,2.2,0.4c0.6,0.3,1.2,0.7,1.6,1.2c0.4,0.5,0.7,1.1,1,1.9c0.2,0.7,0.3,1.5,0.3,2.4c0,0.6,0,1-0.1,1.4h-7.8
		c0.1,1.1,0.5,2,1.2,2.6c0.6,0.6,1.5,0.9,2.5,0.9c0.5,0,1-0.1,1.5-0.2c0.5-0.2,0.9-0.4,1.4-0.7l1,1.8c-0.6,0.4-1.2,0.7-2,0.9
		c-0.7,0.2-1.5,0.4-2.2,0.4c-0.9,0-1.6-0.1-2.4-0.4c-0.7-0.3-1.4-0.7-1.9-1.3c-0.6-0.6-1-1.2-1.3-2
		C643.8,134.4,643.6,133.5,643.6,132.5z M651.9,131.4c0-1-0.2-1.8-0.6-2.3c-0.4-0.6-1-0.8-1.9-0.8c-0.7,0-1.4,0.3-1.9,0.8
		s-0.9,1.3-1,2.3H651.9z"/>
	<path class="st2" d="M657.1,126.4h2.4l0.2,2.2h0.1c0.4-0.8,1-1.4,1.6-1.8c0.6-0.4,1.2-0.6,1.9-0.6c0.6,0,1.1,0.1,1.4,0.2l-0.5,2.5
		c-0.2-0.1-0.4-0.1-0.6-0.1c-0.2,0-0.4,0-0.7,0c-0.5,0-1,0.2-1.5,0.6c-0.5,0.4-1,1-1.4,2v7.5h-2.9V126.4z"/>
	<path class="st2" d="M666.3,135.4c0.5,0.4,1.1,0.8,1.6,1c0.5,0.2,1.1,0.4,1.8,0.4c0.7,0,1.2-0.1,1.5-0.4c0.3-0.3,0.5-0.6,0.5-1.1
		c0-0.2-0.1-0.5-0.2-0.7c-0.2-0.2-0.4-0.4-0.6-0.5s-0.5-0.3-0.8-0.4s-0.6-0.3-1-0.4c-0.4-0.1-0.8-0.3-1.2-0.5
		c-0.4-0.2-0.8-0.4-1.1-0.7c-0.3-0.3-0.6-0.6-0.8-1c-0.2-0.4-0.3-0.8-0.3-1.3c0-1.1,0.4-2,1.2-2.6s1.9-1,3.3-1
		c0.8,0,1.6,0.2,2.3,0.5s1.3,0.6,1.8,1l-1.3,1.8c-0.4-0.3-0.9-0.6-1.3-0.8c-0.4-0.2-0.9-0.3-1.4-0.3c-0.6,0-1.1,0.1-1.4,0.4
		c-0.3,0.3-0.4,0.6-0.4,1c0,0.2,0.1,0.5,0.2,0.6c0.1,0.2,0.3,0.3,0.6,0.5c0.2,0.1,0.5,0.3,0.8,0.4c0.3,0.1,0.6,0.2,1,0.4
		c0.4,0.1,0.8,0.3,1.2,0.5c0.4,0.2,0.8,0.4,1.1,0.7c0.3,0.3,0.6,0.6,0.8,1c0.2,0.4,0.3,0.9,0.3,1.5c0,0.5-0.1,1-0.3,1.5
		c-0.2,0.5-0.5,0.9-0.9,1.2c-0.4,0.3-0.9,0.6-1.5,0.8c-0.6,0.2-1.3,0.3-2,0.3c-0.8,0-1.7-0.2-2.5-0.5s-1.5-0.7-2.1-1.2L666.3,135.4z
		"/>
	<path class="st2" d="M677.2,137c0-0.6,0.2-1,0.5-1.4s0.8-0.6,1.3-0.6c0.5,0,1,0.2,1.3,0.6c0.3,0.4,0.5,0.8,0.5,1.4
		c0,0.6-0.2,1-0.5,1.4c-0.4,0.4-0.8,0.5-1.3,0.5c-0.5,0-1-0.2-1.3-0.5S677.2,137.6,677.2,137z M677.7,124.8l-0.1-2.9h2.9l-0.1,2.9
		l-0.4,8.5h-1.9L677.7,124.8z"/>
</g>
</svg>
