<svg xmlns="http://www.w3.org/2000/svg" width="565.358" height="80.864" viewBox="0 0 565.3584 80.863998" enable-background="new 0 0 590 113"><path fill="#ff6635" d="M37.06 30.9V19.7H15.7c-1.94 0-3.66.24-5.18.73-1.53.5-2.87 1.14-4.03 1.94-1.18.8-2.17 1.74-3 2.8-.8 1.07-1.47 2.18-2 3.34C1 29.7.6 30.86.38 32.04.12 33.2 0 34.33 0 35.4v15.16c0 2.9.53 5.36 1.57 7.35 1.05 2 2.36 3.63 3.93 4.88 1.56 1.25 3.26 2.15 5.1 2.7 1.84.54 3.54.82 5.1.82h30.38V55.1h-30.3c-1.5 0-2.63-.4-3.4-1.18-.78-.77-1.17-1.9-1.17-3.36V35.48c0-1.56.4-2.7 1.15-3.45.76-.75 1.87-1.12 3.34-1.12z"/><path fill="#ff6635" d="M105.7 50.56c0 1.93-.25 3.66-.74 5.2-.5 1.53-1.14 2.88-1.94 4.05s-1.74 2.16-2.8 2.98c-1.07.82-2.18 1.5-3.34 2-1.17.52-2.34.9-3.54 1.15-1.2.24-2.32.36-3.38.36H69.74c-1.55 0-3.25-.28-5.08-.82-1.84-.55-3.55-1.45-5.1-2.7-1.58-1.25-2.9-2.87-3.93-4.87-1.05-1.98-1.58-4.43-1.58-7.34V35.4c0-2.9.53-5.32 1.58-7.32s2.35-3.62 3.92-4.87c1.56-1.24 3.27-2.14 5.1-2.68 1.85-.55 3.54-.82 5.1-.82h20.2c2.88 0 5.32.52 7.34 1.55 2 1.03 3.62 2.33 4.86 3.9 1.23 1.57 2.13 3.27 2.7 5.1.55 1.85.83 3.56.83 5.14v15.16zm-11.22-15.1c0-1.54-.38-2.7-1.16-3.43-.78-.75-1.9-1.13-3.36-1.13H69.83c-1.5 0-2.63.4-3.4 1.15-.78.76-1.17 1.87-1.17 3.34v15.16c0 1.47.4 2.6 1.16 3.36.78.78 1.9 1.17 3.4 1.17h20.14c1.52 0 2.66-.4 3.4-1.18.75-.77 1.12-1.9 1.12-3.36v-15.1z"/><path fill="#ff6635" d="M166.34 50.56c0 1.93-.25 3.66-.73 5.2-.48 1.53-1.13 2.88-1.93 4.05s-1.74 2.16-2.8 2.98c-1.07.82-2.18 1.5-3.35 2-1.16.52-2.34.9-3.53 1.15-1.2.24-2.33.36-3.4.36h-20.2c-1.94 0-3.66-.25-5.18-.74-1.53-.48-2.87-1.14-4.03-1.96-1.18-.82-2.17-1.76-3-2.82-.8-1.06-1.47-2.18-2-3.34-.5-1.17-.9-2.35-1.13-3.54-.25-1.2-.37-2.3-.37-3.34V35.4c0-2.9.52-5.32 1.57-7.32s2.36-3.62 3.93-4.87c1.56-1.24 3.26-2.14 5.1-2.68 1.84-.55 3.54-.82 5.1-.82h20.2v11.2H130.5c-1.5 0-2.63.4-3.4 1.15-.8.76-1.17 1.87-1.17 3.34v15.08c0 1.52.4 2.67 1.15 3.44.76.78 1.87 1.17 3.34 1.17h20.2c1.53 0 2.66-.4 3.4-1.18.76-.77 1.13-1.9 1.13-3.36V0h11.2z"/><path fill="#ff6635" d="M227.16 35.13c0 1.55-.27 3.22-.82 5.02-.55 1.8-1.43 3.46-2.65 5-1.23 1.54-2.83 2.82-4.8 3.86-1.96 1.04-4.36 1.56-7.17 1.56H191.5V39.9h20.23c1.52 0 2.7-.45 3.53-1.4.83-.92 1.25-2.08 1.25-3.46 0-1.46-.46-2.6-1.4-3.44-.92-.84-2.05-1.26-3.37-1.26H191.5c-1.5 0-2.7.47-3.52 1.4-.84.94-1.25 2.1-1.25 3.48v15.64c0 1.5.46 2.66 1.4 3.5.93.83 2.1 1.24 3.47 1.24h20.13v10.7H191.5c-1.54 0-3.2-.28-5-.83-1.8-.54-3.47-1.42-5-2.65-1.55-1.22-2.83-2.8-3.87-4.78-1.03-1.97-1.55-4.36-1.55-7.18V35.13c0-1.55.27-3.23.82-5.02.55-1.8 1.43-3.46 2.65-5 1.22-1.53 2.82-2.82 4.8-3.85 1.95-1.03 4.35-1.55 7.16-1.55h20.23c1.55 0 3.22.27 5.02.82 1.8.54 3.46 1.43 5 2.65s2.82 2.8 3.86 4.78c1.04 1.97 1.56 4.36 1.56 7.18zM209.73 55.6h20.14v10.7h-20.14z"/><path fill="#357ec0" d="M286.08 50.56c0 1.93-.24 3.66-.73 5.2-.5 1.53-1.13 2.88-1.94 4.05-.8 1.17-1.73 2.16-2.8 2.98-1.05.82-2.17 1.5-3.33 2-1.16.52-2.34.9-3.5 1.15-1.2.24-2.3.36-3.38.36h-20.22V55.1h20.2c1.5 0 2.63-.4 3.38-1.18.74-.77 1.12-1.9 1.12-3.36v-15.1c0-1.54-.38-2.7-1.14-3.43-.77-.75-1.88-1.13-3.35-1.13h-20.14c-1.52 0-2.67.4-3.44 1.15-.78.76-1.17 1.87-1.17 3.34v45.46h-11.2V35.4c0-1.94.24-3.66.73-5.2.5-1.5 1.14-2.85 1.96-4.02.82-1.16 1.76-2.15 2.82-2.97 1.06-.8 2.18-1.48 3.34-2 1.17-.5 2.34-.9 3.54-1.14 1.2-.24 2.3-.36 3.34-.36h20.2c1.94 0 3.66.24 5.2.73 1.5.5 2.85 1.14 4.02 1.94 1.16.8 2.15 1.74 2.97 2.8.82 1.07 1.5 2.18 2 3.34.52 1.18.9 2.35 1.15 3.53.24 1.17.36 2.3.36 3.36z"/><path fill="#357ec0" d="M346.34 50.56c0 1.93-.24 3.66-.73 5.2-.48 1.53-1.12 2.88-1.93 4.05-.8 1.17-1.74 2.16-2.8 2.98-1.06.82-2.18 1.5-3.34 2-1.16.52-2.34.9-3.53 1.15-1.2.24-2.33.36-3.4.36h-20.2c-1.56 0-3.25-.28-5.1-.82-1.83-.55-3.53-1.45-5.1-2.7-1.57-1.25-2.87-2.87-3.92-4.87-1.05-1.98-1.57-4.43-1.57-7.34V35.4c0-2.9.53-5.32 1.58-7.32s2.35-3.62 3.92-4.87c1.57-1.24 3.27-2.14 5.1-2.68 1.85-.55 3.54-.82 5.1-.82h20.2c2.88 0 5.33.52 7.34 1.55 2 1.03 3.63 2.33 4.87 3.9 1.24 1.57 2.14 3.27 2.7 5.1.56 1.85.84 3.56.84 5.14zm-11.2-15.1c0-1.54-.4-2.7-1.17-3.43-.77-.75-1.9-1.12-3.36-1.12H310.5c-1.5 0-2.63.4-3.4 1.15-.78.76-1.17 1.87-1.17 3.34v15.16c0 1.47.4 2.6 1.18 3.36.77.78 1.9 1.17 3.4 1.17h20.13c1.53 0 2.67-.4 3.42-1.18.74-.77 1.12-1.9 1.12-3.36z"/><path fill="#357ec0" d="M398.03 30.9h-19.57v35.4h-11.34V30.9h-14.57V19.7h14.57V4.48h11.34V19.7h19.57z"/><path fill="#357ec0" d="M455.36 35.13c0 1.55-.28 3.22-.82 5.02-.55 1.8-1.43 3.46-2.65 5-1.24 1.54-2.83 2.82-4.8 3.86-1.97 1.04-4.36 1.56-7.18 1.56h-20.2V39.9h20.2c1.53 0 2.7-.45 3.54-1.4.83-.92 1.25-2.08 1.25-3.46 0-1.46-.46-2.6-1.4-3.44-.93-.84-2.05-1.26-3.38-1.26h-20.2c-1.53 0-2.7.47-3.55 1.4-.83.94-1.25 2.1-1.25 3.48v15.64c0 1.5.47 2.66 1.4 3.5.94.83 2.1 1.24 3.47 1.24h20.12v10.7h-20.2c-1.56 0-3.24-.28-5.03-.83-1.8-.54-3.48-1.42-5-2.65-1.55-1.22-2.84-2.8-3.87-4.78-1.03-1.97-1.55-4.36-1.55-7.18V35.13c0-1.55.27-3.23.82-5.02.54-1.8 1.43-3.46 2.65-5 1.22-1.53 2.8-2.82 4.78-3.85 1.97-1.03 4.36-1.55 7.18-1.55h20.22c1.56 0 3.23.27 5.03.82 1.8.54 3.46 1.43 5 2.65 1.53 1.22 2.82 2.8 3.85 4.78 1.04 1.97 1.56 4.36 1.56 7.18z"/><path fill="#357ec0" d="M514.54 66.3h-11.2V40.42c0-1.46-.26-2.78-.76-3.94-.5-1.18-1.2-2.17-2.05-3-.86-.84-1.88-1.48-3.04-1.93-1.17-.44-2.43-.66-3.78-.66h-19.6v35.4H462.9V25.26c0-.78.14-1.5.43-2.18.3-.67.7-1.26 1.2-1.77.53-.5 1.13-.88 1.82-1.17.7-.3 1.42-.43 2.2-.43h25.26c1.4 0 2.9.15 4.47.47 1.56.32 3.1.83 4.65 1.53 1.54.7 3 1.6 4.4 2.67 1.4 1.08 2.63 2.4 3.7 3.93 1.08 1.53 1.94 3.3 2.57 5.32.62 2 .94 4.28.94 6.8z"/><path fill="#357ec0" d="M565.36 30.9H545.8v35.4h-11.35V30.9h-14.57V19.7h14.57V4.48h11.34V19.7h19.56z"/></svg>