<svg xmlns="http://www.w3.org/2000/svg" width="219.961" height="190.146" viewBox="0 0 80.19326 69.3235"><title>Code Potent Logo</title><g><path fill="#337dc1" d="M48.02 16.17c-5.44 0-9.83 4.4-9.83 9.83v43.32h9.53V41.48c0-.04 0-.1 0-.14V26.8c0-1.5 1.2-2.72 2.72-2.72h17.53c1.52 0 2.74 1.22 2.74 2.73v14.54c0 1.52-1.22 2.74-2.74 2.74H49.4v9.1H70.37c5.44 0 9.82-4.4 9.82-9.83V26c0-5.44-4.4-9.83-9.83-9.83z"/><path fill="#ff6635" d="M9.83 15.88C4.38 15.88 0 20.28 0 25.7v17.36c0 5.44 4.38 9.82 9.83 9.82h9.2v.03h17.7v-8.7H11.05c-1.46 0-2.63-1.17-2.63-2.62V26.84c0-1.46 1.17-2.63 2.63-2.63h18.93V15.9z"/></g></svg>