<?xml version="1.0" encoding="UTF-8"?><svg width="219.96" height="190.15" viewBox="0 0 80.19326 69.3235" xmlns="http://www.w3.org/2000/svg"><title>codepotent.com</title><path d="m48.02 16.17c-5.44 0-9.83 4.4-9.83 9.83v43.32h9.53v-27.84-0.14-14.54c0-1.5 1.2-2.72 2.72-2.72h17.53c1.52 0 2.74 1.22 2.74 2.73v14.54c0 1.52-1.22 2.74-2.74 2.74h-18.57v9.1h20.97c5.44 0 9.82-4.4 9.82-9.83v-17.36c0-5.44-4.4-9.83-9.83-9.83z" fill="#337dc1"/><path d="M9.83 15.88C4.38 15.88 0 20.28 0 25.7v17.36c0 5.44 4.38 9.82 9.83 9.82h9.2v.03h17.7v-8.7H11.05c-1.46 0-2.63-1.17-2.63-2.62V26.84c0-1.46 1.17-2.63 2.63-2.63h18.93V15.9z" fill="#ff6635"/></svg>